<svg id="Layer_1" data-name="Layer 1" xmlns="http://www.w3.org/2000/svg" viewBox="0 0 120 120"><defs><style>.cls-1,.cls-2,.cls-3{stroke:#000;stroke-width:2.4px;}.cls-1,.cls-2,.cls-3,.cls-4,.cls-5{stroke-linecap:round;stroke-linejoin:round;}.cls-2{fill:#fff;}.cls-3,.cls-4,.cls-5{fill:none;}.cls-4,.cls-5{stroke:#fff;}.cls-4{stroke-width:1.8px;}.cls-5{stroke-width:2.4px;}</style></defs><path class="cls-1" d="M81.68,62.57A21.7,21.7,0,0,1,75.4,80.19l0,0A18.12,18.12,0,0,0,70,93.09v.75H50V92.66a17.11,17.11,0,0,0-5-12.12l-.35-.35A21.79,21.79,0,1,1,81.68,62.57Z"/><rect class="cls-2" x="49.98" y="91.95" width="20.05" height="9.15"/><line class="cls-3" x1="60.15" y1="28.73" x2="60.15" y2="16.44"/><line class="cls-3" x1="37.59" y1="36.99" x2="29.69" y2="27.57"/><line class="cls-3" x1="25.61" y1="57.81" x2="13.5" y2="55.68"/><line class="cls-3" x1="29.82" y1="81.46" x2="19.17" y2="87.61"/><line class="cls-3" x1="90.65" y1="81.37" x2="101.29" y2="87.51"/><line class="cls-3" x1="94.78" y1="57.7" x2="106.89" y2="55.57"/><line class="cls-3" x1="82.74" y1="36.92" x2="90.64" y2="27.5"/><path class="cls-4" d="M61.38,64.37c1.18,2.21,0,4.73-1.37,4.69s-2.19-1.83-2.15-3.54c0-2.63,2.63-5.47,5.39-4.4s4,5.55,1.45,8.59C63.19,71.51,62.54,72,62,73.85a6.78,6.78,0,0,0-.3,2.52v5.68"/><path class="cls-4" d="M58.33,82.17c0-.94,0-3.93-.06-5.74a11.31,11.31,0,0,0-.12-2.52c-.45-2.08-1.39-2.51-2.76-4.2-3.1-3.85-.83-9.12,1.94-8.64"/><path class="cls-5" d="M43.76,59a16.11,16.11,0,0,1,3.51-6.36,16.35,16.35,0,0,1,5.93-4.18"/></svg>