<svg id="Layer_1" data-name="Layer 1" xmlns="http://www.w3.org/2000/svg" viewBox="0 0 120 120"><defs><style>.cls-1{fill:none;stroke-width:2.31px;}.cls-1,.cls-2,.cls-3{stroke:#000;stroke-linecap:round;stroke-linejoin:round;}.cls-2{fill:#fff;stroke-width:2.4px;}.cls-3{stroke-width:2.02px;}</style></defs><path class="cls-1" d="M111,43.41V69.46A14.54,14.54,0,0,1,96.46,84H34.91c-3.2,9.66-14.28,11.13-14.28,11.13S24.44,90,23.66,84h-.12A14.54,14.54,0,0,1,9,69.46v-26A14.54,14.54,0,0,1,23.54,28.87H96.46A14.54,14.54,0,0,1,111,43.41Z"/><polygon class="cls-2" points="35.91 58.01 37.53 65.17 31.23 61.4 30.72 61.1 30.21 61.4 23.9 65.15 25.54 57.99 25.67 57.41 25.22 57.02 19.71 52.18 27.02 51.53 27.61 51.48 27.85 50.92 30.75 44.19 33.63 50.94 33.86 51.48 34.45 51.54 41.76 52.22 36.23 57.04 35.78 57.43 35.91 58.01"/><polygon class="cls-2" points="65.18 58.01 66.79 65.17 60.5 61.4 59.98 61.1 59.47 61.4 53.16 65.15 54.8 57.99 54.94 57.41 54.49 57.02 48.97 52.18 56.28 51.53 56.87 51.48 57.11 50.92 60.01 44.19 62.89 50.94 63.13 51.48 63.72 51.54 71.03 52.22 65.5 57.04 65.05 57.43 65.18 58.01"/><polygon class="cls-2" points="89.26 44.23 89.26 61.1 89.25 61.09 88.74 61.41 82.43 65.14 84.06 57.99 84.2 57.41 83.75 57.02 78.24 52.17 85.54 51.52 86.14 51.48 86.38 50.92 89.26 44.23"/><polyline class="cls-3" points="89.26 44.23 89.28 44.19 92.16 50.94 92.39 51.48 92.98 51.53 100.29 52.22 94.76 57.03 94.31 57.44 94.44 58.02 96.06 65.17 89.76 61.41 89.26 61.1"/></svg>