<svg id="Layer_1" data-name="Layer 1" xmlns="http://www.w3.org/2000/svg" viewBox="0 0 120 120"><defs><style>.cls-1{fill:none;}.cls-1,.cls-2,.cls-3{stroke:#000;stroke-linecap:round;stroke-linejoin:round;stroke-width:2.4px;}.cls-2{fill:#fff;}</style></defs><path class="cls-1" d="M96.56,55.25V97H23.44V55.25a5.23,5.23,0,0,0,10.45,0,5.22,5.22,0,0,0,10.44,0,5.23,5.23,0,0,0,10.45,0,5.22,5.22,0,0,0,10.44,0,5.22,5.22,0,0,0,8.91,3.69,5.14,5.14,0,0,0,1.54-3.69,5.22,5.22,0,0,0,10.44,0A5.22,5.22,0,0,0,95,58.94,5.14,5.14,0,0,0,96.56,55.25Z"/><path class="cls-2" d="M97.15,25.69q4.93,14.77,9.85,29.54h-5.22c-2.89,0-4.31-2.27-5.22-5.22a5.24,5.24,0,0,1-5.23,5.22A5.21,5.21,0,0,1,86.11,50a5.22,5.22,0,1,1-10.44,0,5.24,5.24,0,0,1-5.23,5.22A5.21,5.21,0,0,1,65.22,50a5.22,5.22,0,0,1-10.44,0,5.23,5.23,0,0,1-10.45,0,5.22,5.22,0,1,1-10.44,0,5.23,5.23,0,0,1-10.45,0c-1,3.83-2.33,5.22-5.22,5.22H13L22.84,25.7Z"/><path class="cls-3" d="M96.56,50v5.24a5.24,5.24,0,0,1-5.23,5.22,5.21,5.21,0,0,1-5.22-5.22,5.22,5.22,0,0,1-10.44,0,5.24,5.24,0,0,1-5.23,5.22,5.21,5.21,0,0,1-5.22-5.22,5.22,5.22,0,0,1-10.44,0,5.23,5.23,0,0,1-10.45,0,5.22,5.22,0,0,1-10.44,0,5.23,5.23,0,0,1-10.45,0V50a5.23,5.23,0,0,0,10.45,0,5.22,5.22,0,0,0,10.44,0,5.23,5.23,0,0,0,10.45,0,5.22,5.22,0,0,0,10.44,0,5.22,5.22,0,0,0,8.91,3.69A5.14,5.14,0,0,0,75.67,50a5.22,5.22,0,0,0,10.44,0A5.22,5.22,0,0,0,95,53.7,5.14,5.14,0,0,0,96.56,50Z"/><rect class="cls-3" x="35.57" y="68.88" width="17.52" height="15.41"/><path class="cls-3" d="M75.67,68.88h0a7.87,7.87,0,0,1,7.87,7.87V97a0,0,0,0,1,0,0H67.79a0,0,0,0,1,0,0V76.75A7.87,7.87,0,0,1,75.67,68.88Z"/><line class="cls-1" x1="23.44" y1="50.01" x2="28.09" y2="33.78"/><line class="cls-1" x1="33.89" y1="50.01" x2="36.73" y2="33.78"/><line class="cls-3" x1="44.33" y1="50.01" x2="46.17" y2="33.78"/><line class="cls-3" x1="54.78" y1="50.01" x2="55.35" y2="33.78"/><line class="cls-1" x1="96.56" y1="50.01" x2="91.91" y2="33.78"/><line class="cls-1" x1="86.11" y1="50.01" x2="83.27" y2="33.78"/><line class="cls-3" x1="75.67" y1="50.01" x2="73.83" y2="33.78"/><line class="cls-3" x1="65.22" y1="50.01" x2="64.35" y2="33.78"/></svg>