<svg id="Layer_1" data-name="Layer 1" xmlns="http://www.w3.org/2000/svg" viewBox="0 0 489.83 98.35"><defs><style>.cls-1{fill:#eaeaea;}.cls-2{fill:none;}.cls-2,.cls-3,.cls-4{stroke:#000;stroke-linecap:round;stroke-linejoin:round;}.cls-2,.cls-3{stroke-width:2.4px;}.cls-4{stroke-width:2.5px;}</style></defs><title>panop-logo-layer-light</title><polygon class="cls-1" points="203.41 21.16 198.25 34.34 198.25 34.34 211.68 75.59 211.68 75.59 309.58 54.63 309.75 39.45 297.32 1.2 203.42 21.16 203.41 21.16"/><path class="cls-2" d="M223.85,67.09l-4.88-15,4.32-.92s4.33-.92,5.55,2.84-3.1,4.68-3.1,4.68l-4.33.92" transform="translate(0 -21.65)"/><path class="cls-2" d="M286.6,53.75l-4.88-15,4.32-.92s4.33-.92,5.55,2.84-3.1,4.68-3.1,4.68l-4.33.92" transform="translate(0 -21.65)"/><path class="cls-2" d="M235.47,56.58" transform="translate(0 -21.65)"/><polygon class="cls-2" points="244.47 35.03 236.35 36.75 237.36 26.49 244.47 35.03"/><line class="cls-2" x1="248.74" y1="40.15" x2="244.47" y2="35.03"/><line class="cls-2" x1="236.36" y1="36.75" x2="235.75" y2="42.91"/><polyline class="cls-2" points="254.15 39 249.26 23.96 264.96 36.7 260.08 21.66"/><path class="cls-2" d="M270.9,41q-5.41,1.16-3.58,6.79l1.22,3.76q1.83,5.64,7.24,4.49t3.58-6.79l-1.22-3.76Q276.31,39.86,270.9,41Z" transform="translate(0 -21.65)"/><polygon class="cls-2" points="309.75 39.45 215.84 59.41 203.42 21.16 297.32 1.2 309.75 39.45"/><polygon class="cls-3" points="309.75 39.45 309.58 54.63 211.68 75.59 215.84 59.41 309.75 39.45"/><line class="cls-2" x1="211.68" y1="75.59" x2="198.25" y2="34.34"/><line class="cls-2" x1="203.42" y1="21.16" x2="198.25" y2="34.34"/><polyline class="cls-1" points="37.68 75.59 135.58 54.63 160 54.63 160 98.35 0 98.35 0 34.34 24.25 34.34 37.68 75.59 135.58 54.63"/><polyline class="cls-2" points="135.58 54.63 37.68 75.59 24.25 34.34"/><polygon class="cls-4" points="488.58 54.63 390.57 75.38 377.25 34.34 475.06 13.68 488.58 54.63"/></svg>