<svg id="Layer_1" data-name="Layer 1" xmlns="http://www.w3.org/2000/svg" viewBox="0 0 160 120"><defs><style>.cls-1{fill:#fff;}.cls-2{fill:none;}.cls-2,.cls-3{stroke:#000;stroke-linecap:round;stroke-linejoin:round;stroke-width:2.4px;}</style></defs><title>panop-logo-layer-light</title><polygon class="cls-1" points="29.41 42.81 24.25 55.99 24.25 55.99 37.68 97.24 37.68 97.24 135.58 76.28 135.75 61.1 123.32 22.85 29.42 42.81 29.41 42.81"/><path class="cls-2" d="M49.85,67.09,45,52.05l4.32-.92s4.33-.92,5.55,2.84-3.1,4.68-3.1,4.68l-4.33.92"/><path class="cls-2" d="M112.6,53.75l-4.88-15,4.32-.92s4.33-.92,5.55,2.84-3.1,4.68-3.1,4.68l-4.33.92"/><polygon class="cls-2" points="70.47 56.68 62.35 58.4 63.36 48.14 70.47 56.68"/><line class="cls-2" x1="74.74" y1="61.8" x2="70.47" y2="56.68"/><line class="cls-2" x1="62.36" y1="58.4" x2="61.75" y2="64.56"/><polyline class="cls-2" points="80.15 60.65 75.26 45.61 90.97 58.35 86.08 43.31"/><path class="cls-2" d="M96.9,41q-5.41,1.16-3.58,6.79l1.22,3.76q1.83,5.64,7.24,4.49t3.58-6.79l-1.22-3.76Q102.31,39.86,96.9,41Z"/><polygon class="cls-2" points="135.75 61.1 41.84 81.06 29.42 42.81 123.32 22.85 135.75 61.1"/><polygon class="cls-3" points="135.75 61.1 135.58 76.28 37.68 97.24 41.84 81.06 135.75 61.1"/><line class="cls-2" x1="37.68" y1="97.24" x2="24.25" y2="55.99"/><line class="cls-2" x1="29.42" y1="42.81" x2="24.25" y2="55.99"/></svg>