<?xml version="1.0" encoding="utf-8"?>
<!-- Generator: Adobe Illustrator 22.1.0, SVG Export Plug-In . SVG Version: 6.00 Build 0)  -->
<svg version="1.1" id="Layer_1" xmlns="http://www.w3.org/2000/svg" xmlns:xlink="http://www.w3.org/1999/xlink" x="0px" y="0px"
	 viewBox="0 0 16 16" style="enable-background:new 0 0 16 16;" xml:space="preserve">
<g id="surface1_1_">
	<path d="M-50.9,1.5c-3.6,0-6.5,2.9-6.5,6.5s2.9,6.5,6.5,6.5s6.5-2.9,6.5-6.5S-47.3,1.5-50.9,1.5z M-50.9,2.5c1.3,0,2.5,0.5,3.4,1.2
		c-0.5,0.6-1.4,1.4-2.8,1.9c-0.8-1.4-1.5-2.4-1.9-3C-51.8,2.6-51.3,2.5-50.9,2.5z M-53.2,3c0.4,0.5,1.1,1.4,1.9,2.9
		c-2.2,0.6-4.1,0.6-4.9,0.6C-55.7,5-54.6,3.7-53.2,3z M-46.7,4.4c0.8,1,1.3,2.2,1.3,3.6c0,0.2,0,0.4,0,0.6c-0.2,0-0.3,0-0.5-0.1
		c-0.8-0.1-1.8-0.1-2.9,0.1c-0.3-0.8-0.6-1.4-0.9-2.1C-48.2,6-47.3,5.1-46.7,4.4z M-50.8,6.9c0.3,0.6,0.6,1.3,0.9,2
		c-1.3,0.4-2.5,1.3-3.4,2.1c-0.5,0.4-0.9,0.9-1.2,1.2c-1.2-1-1.9-2.5-1.9-4.1c0-0.2,0-0.3,0-0.5C-55.6,7.6-53.3,7.6-50.8,6.9z
		 M-47.4,9.5c0.8,0,1.4,0,1.9,0.1c-0.4,1.2-1.1,2.3-2.2,3c-0.2-1-0.4-2-0.7-2.9C-48.1,9.6-47.8,9.5-47.4,9.5z M-49.5,9.8
		c0.4,1,0.6,2.1,0.8,3.3c-0.7,0.3-1.4,0.4-2.2,0.4c-1,0-2-0.3-2.8-0.8c0.3-0.3,0.6-0.7,1-1C-51.7,10.9-50.6,10.1-49.5,9.8z"/>
</g>
<g id="surface1_2_">
	<path d="M-24.6,3.8c-0.5,0.2-1,0.4-1.6,0.4c0.6-0.3,1-0.9,1.2-1.5c-0.5,0.3-1.1,0.5-1.8,0.7c-0.5-0.5-1.2-0.9-2-0.9
		c-1.5,0-2.8,1.2-2.8,2.8c0,0.2,0,0.4,0.1,0.6c-2.3-0.1-4.4-1.2-5.7-2.9c-0.2,0.4-0.4,0.9-0.4,1.4c0,1,0.5,1.8,1.2,2.3
		c-0.5,0-0.9-0.1-1.3-0.3c0,0,0,0,0,0c0,1.3,1,2.5,2.2,2.7c-0.2,0.1-0.5,0.1-0.7,0.1c-0.2,0-0.4,0-0.5,0c0.4,1.1,1.4,1.9,2.6,1.9
		c-0.9,0.7-2.1,1.2-3.4,1.2c-0.2,0-0.4,0-0.7,0c1.2,0.8,2.7,1.2,4.3,1.2c5.1,0,7.9-4.2,7.9-7.9c0-0.1,0-0.2,0-0.4
		C-25.4,4.8-25,4.4-24.6,3.8"/>
</g>
<g id="surface1_3_">
	<path d="M-13.1,2.1c-1.9,0-3.5,1.6-3.5,3.5v4.9c0,1.9,1.6,3.5,3.5,3.5h4.9c1.9,0,3.5-1.6,3.5-3.5V5.6c0-1.9-1.6-3.5-3.5-3.5H-13.1z
		 M-13.1,3.2h4.9c1.3,0,2.4,1.1,2.4,2.4v4.9c0,1.3-1.1,2.4-2.4,2.4h-4.9c-1.3,0-2.4-1.1-2.4-2.4V5.6C-15.5,4.2-14.4,3.2-13.1,3.2z
		 M-7.5,4.3c-0.3,0-0.5,0.2-0.5,0.5c0,0.3,0.2,0.5,0.5,0.5C-7.2,5.3-7,5.1-7,4.8C-7,4.6-7.2,4.3-7.5,4.3z M-10.6,4.8
		c-1.8,0-3.2,1.4-3.2,3.2s1.4,3.2,3.2,3.2S-7.4,9.8-7.4,8S-8.9,4.8-10.6,4.8z M-10.6,5.9c1.2,0,2.1,1,2.1,2.1s-1,2.1-2.1,2.1
		s-2.1-1-2.1-2.1S-11.8,5.9-10.6,5.9z"/>
</g>
<g id="surface1">
	<path d="M11.4,2.5H4.6c-1.1,0-2.1,0.9-2.1,2.1v6.9c0,1.1,0.9,2.1,2.1,2.1h6.9c1.1,0,2.1-0.9,2.1-2.1V4.6
		C13.5,3.4,12.6,2.5,11.4,2.5z M11.2,8.4h-1v3.8H8.4V8.4H7.7V7.1h0.7V6.3c0-1.1,0.4-1.7,1.7-1.7h1.3v1.3h-0.7
		c-0.5,0-0.5,0.2-0.5,0.5l0,0.7h1.2L11.2,8.4z"/>
</g>
</svg>
