<?xml version="1.0" encoding="utf-8"?>
<!-- Generator: Adobe Illustrator 22.1.0, SVG Export Plug-In . SVG Version: 6.00 Build 0)  -->
<svg version="1.1" id="Layer_1" xmlns="http://www.w3.org/2000/svg" xmlns:xlink="http://www.w3.org/1999/xlink" x="0px" y="0px"
	 viewBox="0 0 16 16" style="enable-background:new 0 0 16 16;" xml:space="preserve">
<g id="surface1_1_">
	<path d="M-32,1.5c-3.6,0-6.5,2.9-6.5,6.5s2.9,6.5,6.5,6.5s6.5-2.9,6.5-6.5S-28.4,1.5-32,1.5z M-32,2.5c1.3,0,2.5,0.5,3.4,1.2
		c-0.5,0.6-1.4,1.4-2.8,1.9c-0.8-1.4-1.5-2.4-1.9-3C-32.9,2.6-32.4,2.5-32,2.5z M-34.3,3c0.4,0.5,1.1,1.4,1.9,2.9
		c-2.2,0.6-4.1,0.6-4.9,0.6C-36.8,5-35.7,3.7-34.3,3z M-27.8,4.4c0.8,1,1.3,2.2,1.3,3.6c0,0.2,0,0.4,0,0.6c-0.2,0-0.3,0-0.5-0.1
		c-0.8-0.1-1.8-0.1-2.9,0.1c-0.3-0.8-0.6-1.4-0.9-2.1C-29.4,6-28.4,5.1-27.8,4.4z M-31.9,6.9c0.3,0.6,0.6,1.3,0.9,2
		c-1.3,0.4-2.5,1.3-3.4,2.1c-0.5,0.4-0.9,0.9-1.2,1.2c-1.2-1-1.9-2.5-1.9-4.1c0-0.2,0-0.3,0-0.5C-36.7,7.6-34.5,7.6-31.9,6.9z
		 M-28.6,9.5c0.8,0,1.4,0,1.9,0.1c-0.4,1.2-1.1,2.3-2.2,3c-0.2-1-0.4-2-0.7-2.9C-29.2,9.6-28.9,9.5-28.6,9.5z M-30.6,9.8
		c0.4,1,0.6,2.1,0.8,3.3c-0.7,0.3-1.4,0.4-2.2,0.4c-1,0-2-0.3-2.8-0.8c0.3-0.3,0.6-0.7,1-1C-32.9,10.9-31.7,10.1-30.6,9.8z"/>
</g>
<g id="surface1_2_">
	<path d="M-5.7,3.8c-0.5,0.2-1,0.4-1.6,0.4c0.6-0.3,1-0.9,1.2-1.5C-6.6,3-7.2,3.3-7.8,3.4c-0.5-0.5-1.2-0.9-2-0.9
		c-1.5,0-2.8,1.2-2.8,2.8c0,0.2,0,0.4,0.1,0.6c-2.3-0.1-4.4-1.2-5.7-2.9c-0.2,0.4-0.4,0.9-0.4,1.4c0,1,0.5,1.8,1.2,2.3
		c-0.5,0-0.9-0.1-1.3-0.3c0,0,0,0,0,0c0,1.3,1,2.5,2.2,2.7c-0.2,0.1-0.5,0.1-0.7,0.1c-0.2,0-0.4,0-0.5,0c0.4,1.1,1.4,1.9,2.6,1.9
		c-0.9,0.7-2.1,1.2-3.4,1.2c-0.2,0-0.4,0-0.7,0c1.2,0.8,2.7,1.2,4.3,1.2c5.1,0,7.9-4.2,7.9-7.9c0-0.1,0-0.2,0-0.4
		C-6.5,4.8-6.1,4.4-5.7,3.8"/>
</g>
<g id="surface1_3_">
	<path d="M5.8,2.1c-1.9,0-3.5,1.6-3.5,3.5v4.9c0,1.9,1.6,3.5,3.5,3.5h4.9c1.9,0,3.5-1.6,3.5-3.5V5.6c0-1.9-1.6-3.5-3.5-3.5H5.8z
		 M5.8,3.2h4.9c1.3,0,2.4,1.1,2.4,2.4v4.9c0,1.3-1.1,2.4-2.4,2.4H5.8c-1.3,0-2.4-1.1-2.4-2.4V5.6C3.4,4.2,4.5,3.2,5.8,3.2z
		 M11.4,4.3c-0.3,0-0.5,0.2-0.5,0.5c0,0.3,0.2,0.5,0.5,0.5s0.5-0.2,0.5-0.5C11.9,4.6,11.7,4.3,11.4,4.3z M8.2,4.8C6.5,4.8,5,6.2,5,8
		s1.4,3.2,3.2,3.2s3.2-1.4,3.2-3.2S10,4.8,8.2,4.8z M8.2,5.9c1.2,0,2.1,1,2.1,2.1s-1,2.1-2.1,2.1S6.1,9.2,6.1,8S7.1,5.9,8.2,5.9z"/>
</g>
<g id="surface1">
	<path d="M30.3,2.5h-6.9c-1.1,0-2.1,0.9-2.1,2.1v6.9c0,1.1,0.9,2.1,2.1,2.1h6.9c1.1,0,2.1-0.9,2.1-2.1V4.6
		C32.4,3.4,31.5,2.5,30.3,2.5z M30,8.4h-1v3.8h-1.7V8.4h-0.7V7.1h0.7V6.3c0-1.1,0.4-1.7,1.7-1.7h1.3v1.3h-0.7C29,5.9,29,6.1,29,6.4
		l0,0.7h1.2L30,8.4z"/>
</g>
</svg>
