<?xml version="1.0" encoding="utf-8"?>
<!-- Generator: Adobe Illustrator 22.1.0, SVG Export Plug-In . SVG Version: 6.00 Build 0)  -->
<svg version="1.1" id="Layer_1" xmlns="http://www.w3.org/2000/svg" xmlns:xlink="http://www.w3.org/1999/xlink" x="0px" y="0px"
	 viewBox="0 0 120 80" style="enable-background:new 0 0 120 80;" xml:space="preserve">
<g>
	<path d="M28.2,47.4c0.2,0.5,0.6,0.8,1.1,0.8c0.1,0,0.2,0,0.4-0.1c0.6-0.2,1-0.9,0.8-1.5l-2-6.3l3-0.6c0.3-0.1,2.6-0.6,3.7-2.5
		c0.4-0.7,0.8-2,0.3-3.7c-1.2-3.8-5.1-4-6.9-3.6l-4.3,0.9c-0.3,0.1-0.6,0.3-0.8,0.6c-0.2,0.3-0.2,0.6-0.1,1L28.2,47.4z M29,32.3
		c0.3-0.1,3.3-0.6,4.2,2c0.2,0.7,0.2,1.3-0.1,1.8c-0.5,0.9-1.7,1.3-2.2,1.4l-3.3,0.7L26,32.9L29,32.3z"/>
	<path d="M91,34.1c0.2,0.5,0.6,0.8,1.1,0.8c0.1,0,0.2,0,0.4-0.1c0.6-0.2,1-0.9,0.8-1.5l-2-6.3l3-0.6c0.3-0.1,2.6-0.6,3.7-2.5
		c0.4-0.7,0.8-2,0.3-3.7c-1.2-3.8-5.1-4-6.9-3.6L87,17.5c-0.3,0.1-0.6,0.3-0.8,0.6c-0.2,0.3-0.2,0.6-0.1,1L91,34.1z M91.8,18.9
		c0.1,0,3.3-0.7,4.2,2c0.2,0.7,0.2,1.3-0.1,1.8c-0.5,0.9-1.7,1.3-2.2,1.4l-3.3,0.7l-1.7-5.2L91.8,18.9z"/>
	<path d="M41.1,45.7c0,0,0.1,0,0.1,0c0.6,0,1.1-0.5,1.2-1.1l0.5-5.3l6.5-1.4l3.8,4.6c0.2,0.3,0.6,0.4,0.9,0.4c0.3,0,0.5-0.1,0.8-0.3
		c0.5-0.4,0.6-1.2,0.2-1.7l-4.3-5.1l-7.1-8.5c-0.3-0.4-0.8-0.5-1.3-0.4s-0.8,0.5-0.8,1l-1,10.3l-0.6,6.2
		C40,45.1,40.5,45.6,41.1,45.7z M43.8,31.1l4,4.8l-4.6,1L43.8,31.1z"/>
	<path d="M58.5,41c0.2,0.5,0.6,0.8,1.1,0.8c0.1,0,0.2,0,0.4-0.1c0.6-0.2,1-0.9,0.8-1.5l-3.6-11.2l12.6,10.2c0.4,0.3,1,0.4,1.4,0.1
		c0.4-0.3,0.6-0.9,0.5-1.4l-4.9-15c-0.2-0.6-0.9-1-1.5-0.8c-0.6,0.2-1,0.9-0.8,1.5l3.6,11.2L55.5,24.6c-0.4-0.3-1-0.4-1.4-0.1
		c-0.4,0.3-0.6,0.9-0.5,1.4L58.5,41z"/>
	<path d="M72.9,31.9c1.2,3.6,3.5,5.5,6.6,5.5c0.6,0,1.3-0.1,2-0.2c2.1-0.4,3.5-1.4,4.3-2.7c0.8-1.4,0.9-3.3,0.1-5.6l-1.2-3.8
		c-1.4-4.4-4.4-6.2-8.6-5.3c0,0,0,0,0,0c-2.1,0.4-3.5,1.4-4.3,2.7c-0.8,1.4-0.9,3.3-0.1,5.6L72.9,31.9z M73.9,23.7
		c0.4-0.8,1.4-1.3,2.7-1.6h0c3-0.6,4.8,0.5,5.9,3.7l1.2,3.8c0.5,1.6,0.5,2.8,0.1,3.7c-0.4,0.8-1.4,1.3-2.7,1.6
		c-3,0.6-4.8-0.5-5.9-3.7L74,27.4C73.4,25.8,73.4,24.6,73.9,23.7z"/>
	<path d="M116.4,40.8C116.4,40.7,116.4,40.7,116.4,40.8L104,2.4c-0.2-0.6-0.8-0.9-1.4-0.8l-93.9,20c0,0-0.1,0-0.2,0.1
		c-0.1,0-0.2,0.1-0.2,0.1c-0.1,0-0.1,0.1-0.2,0.1C8.1,22,8,22,7.9,22.1c0,0,0,0-0.1,0.1c0,0,0,0.1,0,0.1c0,0.1-0.1,0.1-0.1,0.2
		L3.6,38.6c0,0,0,0.1,0,0.1c0,0.1,0,0.2,0,0.2c0,0.1,0,0.2,0,0.2c0,0,0,0.1,0,0.1L16,77.6c0,0,0,0.1,0.1,0.1c0,0.1,0,0.1,0.1,0.1
		c0.1,0.1,0.1,0.2,0.2,0.2c0,0,0,0,0.1,0.1c0.1,0.1,0.2,0.2,0.4,0.2c0,0,0,0,0,0c0.1,0,0.2,0,0.3,0c0,0,0,0,0,0c0.1,0,0.2,0,0.2,0
		l93.9-20c0,0,0,0,0.1,0c0.1,0,0.2-0.1,0.3-0.1c0,0,0.1,0,0.1-0.1c0.1-0.1,0.2-0.2,0.3-0.3c0,0,0,0,0-0.1c0.1-0.1,0.1-0.2,0.1-0.3
		l4.2-16.2c0,0,0-0.1,0-0.1c0-0.1,0-0.1,0-0.2C116.4,41,116.4,40.9,116.4,40.8z M17.1,72.9L6,38.9l3.1-11.8l11,34L17.1,72.9z
		 M22.2,59.6l-11.7-36L102,4.2l11.7,36L22.2,59.6z"/>
</g>
</svg>
