<?xml version="1.0" encoding="utf-8"?>
<!-- Generator: Adobe Illustrator 22.1.0, SVG Export Plug-In . SVG Version: 6.00 Build 0)  -->
<svg version="1.1" id="Layer_1" xmlns="http://www.w3.org/2000/svg" xmlns:xlink="http://www.w3.org/1999/xlink" x="0px" y="0px"
	 viewBox="0 0 120 80" style="enable-background:new 0 0 120 80;" xml:space="preserve">
<style type="text/css">
	.st0{filter:url(#Adobe_OpacityMaskFilter);}
	.st1{fill:#FFFFFF;}
	.st2{mask:url(#mask-2_2_);}
</style>
<title>Logo</title>
<desc>Created with Sketch.</desc>
<g id="Logo_1_">
	<g id="Color-_x2F_-Black_1_" transform="translate(3.000000, 1.000000)">
		<g id="Mask_1_">
		</g>
		<defs>
			<filter id="Adobe_OpacityMaskFilter" filterUnits="userSpaceOnUse" x="-3" y="-1" width="120" height="80">
				<feColorMatrix  type="matrix" values="1 0 0 0 0  0 1 0 0 0  0 0 1 0 0  0 0 0 1 0"/>
			</filter>
		</defs>
		<mask maskUnits="userSpaceOnUse" x="-3" y="-1" width="120" height="80" id="mask-2_2_">
			<g class="st0">
				<path id="path-1_2_" class="st1" d="M25.2,46.4c0.2,0.5,0.6,0.8,1.1,0.8c0.1,0,0.2,0,0.4-0.1c0.6-0.2,1-0.9,0.8-1.5l-2-6.3
					l3-0.6c0.3-0.1,2.6-0.6,3.7-2.5c0.4-0.7,0.8-2,0.3-3.7c-1.2-3.8-5.1-4-6.9-3.6l-4.3,0.9c-0.3,0.1-0.6,0.3-0.8,0.6
					c-0.2,0.3-0.2,0.6-0.1,1L25.2,46.4z M26,31.3c0.3-0.1,3.3-0.6,4.2,2c0.2,0.7,0.2,1.3-0.1,1.8c-0.5,0.9-1.7,1.3-2.2,1.4l-3.3,0.7
					L23,31.9L26,31.3z M88,33.1l-4.9-15c-0.1-0.4-0.1-0.7,0.1-1c0.2-0.3,0.5-0.5,0.8-0.6l4.4-0.9c1.8-0.4,5.7-0.2,6.9,3.6
					c0.5,1.7,0.1,3-0.3,3.7c-1.1,1.9-3.4,2.4-3.7,2.5l-3,0.6l2,6.3c0.2,0.6-0.2,1.3-0.8,1.5c-0.2,0.1-0.3,0.1-0.4,0.1
					C88.6,33.9,88.2,33.6,88,33.1z M88.8,17.9l-3.1,0.7l1.7,5.2l3.3-0.7c0.5-0.1,1.7-0.5,2.2-1.4c0.3-0.5,0.3-1.1,0.1-1.8
					C92.1,17.2,88.9,17.9,88.8,17.9z M38.1,44.7c-0.6-0.1-1.1-0.6-1.1-1.3l0.6-6.2l1-10.3c0-0.5,0.3-0.9,0.8-1s1,0,1.3,0.4l7.1,8.5
					l4.3,5.1c0.4,0.5,0.3,1.3-0.2,1.7c-0.3,0.2-0.5,0.3-0.8,0.3c-0.3,0-0.7-0.1-0.9-0.4l-3.8-4.6l-6.5,1.4l-0.5,5.3
					c-0.1,0.6-0.6,1.1-1.2,1.1H38.1z M40.8,30.1l-0.6,5.8l4.6-1L40.8,30.1z M55.5,40l-4.9-15.1c-0.1-0.5,0.1-1.1,0.5-1.4
					c0.4-0.3,1-0.2,1.4,0.1l12.6,10.2l-3.6-11.2c-0.2-0.6,0.2-1.3,0.8-1.5c0.6-0.2,1.3,0.2,1.5,0.8l4.9,15c0.1,0.5-0.1,1.1-0.5,1.4
					c-0.4,0.3-1,0.2-1.4-0.1L54.2,28l3.6,11.2c0.2,0.6-0.2,1.3-0.8,1.5c-0.2,0.1-0.3,0.1-0.4,0.1C56.1,40.8,55.7,40.5,55.5,40z
					 M69.9,30.9l-1.2-3.8c-0.8-2.3-0.7-4.2,0.1-5.6c0.8-1.3,2.2-2.3,4.3-2.7c4.2-0.9,7.2,0.9,8.6,5.3l1.2,3.8
					c0.8,2.3,0.7,4.2-0.1,5.6c-0.8,1.3-2.2,2.3-4.3,2.7c-0.7,0.1-1.4,0.2-2,0.2C73.4,36.4,71.1,34.5,69.9,30.9z M70.9,22.7
					c-0.5,0.9-0.5,2.1,0.1,3.7l1.2,3.8c1.1,3.2,2.9,4.3,5.9,3.7c1.3-0.3,2.3-0.8,2.7-1.6c0.4-0.9,0.4-2.1-0.1-3.7l-1.2-3.8
					c-1.1-3.2-2.9-4.3-5.9-3.7C72.3,21.4,71.3,21.9,70.9,22.7z M113.4,39.8C113.4,39.7,113.4,39.7,113.4,39.8L101,1.4
					c-0.2-0.6-0.8-0.9-1.4-0.8l-93.9,20c0,0-0.1,0-0.2,0.1c-0.1,0-0.2,0.1-0.2,0.1c-0.1,0-0.1,0.1-0.2,0.1C5.1,21,5,21,4.9,21.1
					c0,0,0,0-0.1,0.1v0.1c0,0.1-0.1,0.1-0.1,0.2L0.6,37.6v0.1c0,0.1,0,0.2,0,0.2c0,0.1,0,0.2,0,0.2v0.1L13,76.6c0,0,0,0.1,0.1,0.1
					c0,0.1,0,0.1,0.1,0.1c0.1,0.1,0.1,0.2,0.2,0.2c0,0,0,0,0.1,0.1s0.2,0.2,0.4,0.2l0,0c0.1,0,0.2,0,0.3,0l0,0c0.1,0,0.2,0,0.2,0
					l93.9-20c0,0,0,0,0.1,0s0.2-0.1,0.3-0.1c0,0,0.1,0,0.1-0.1c0.1-0.1,0.2-0.2,0.3-0.3c0,0,0,0,0-0.1c0.1-0.1,0.1-0.2,0.1-0.3
					l4.2-16.2v-0.1c0-0.1,0-0.1,0-0.2C113.4,40,113.4,39.9,113.4,39.8z M14.1,71.9L3,37.9l3.1-11.8l11,34L14.1,71.9z M19.2,58.6
					l-11.7-36L99,3.2l11.7,36L19.2,58.6z"/>
			</g>
		</mask>
		<g id="Rectangle-2_1_" class="st2">
			<g transform="translate(-3.000000, -1.000000)">
				<rect width="120" height="80"/>
			</g>
		</g>
	</g>
</g>
</svg>
