<?xml version="1.0" encoding="UTF-8"?>
<svg width="120px" height="80px" viewBox="0 0 120 80" version="1.1" xmlns="http://www.w3.org/2000/svg" xmlns:xlink="http://www.w3.org/1999/xlink">
    <!-- Generator: Sketch 51.2 (57519) - http://www.bohemiancoding.com/sketch -->
    <title>Logo Empty</title>
    <desc>Created with Sketch.</desc>
    <defs>
        <path d="M113.4,39.8 C113.4,39.7 113.4,39.7 113.4,39.8 L101,1.4 C100.8,0.8 100.2,0.5 99.6,0.6 L5.7,20.6 C5.7,20.6 5.6,20.6 5.5,20.7 C5.4,20.7 5.3,20.8 5.3,20.8 C5.2,20.8 5.2,20.9 5.1,20.9 C5.1,21 5,21 4.9,21.1 C4.9,21.1 4.9,21.1 4.8,21.2 C4.8,21.2 4.8,21.3 4.8,21.3 C4.8,21.4 4.7,21.4 4.7,21.5 L0.6,37.6 C0.6,37.6 0.6,37.7 0.6,37.7 C0.6,37.8 0.6,37.9 0.6,37.9 C0.6,38 0.6,38.1 0.6,38.1 C0.6,38.1 0.6,38.2 0.6,38.2 L13,76.6 C13,76.6 13,76.7 13.1,76.7 C13.1,76.8 13.1,76.8 13.2,76.8 C13.3,76.9 13.3,77 13.4,77 C13.4,77 13.4,77 13.5,77.1 C13.6,77.2 13.7,77.3 13.9,77.3 C13.9,77.3 13.9,77.3 13.9,77.3 C14,77.3 14.1,77.3 14.2,77.3 C14.2,77.3 14.2,77.3 14.2,77.3 C14.3,77.3 14.4,77.3 14.4,77.3 L108.3,57.3 C108.3,57.3 108.3,57.3 108.4,57.3 C108.5,57.3 108.6,57.2 108.7,57.2 C108.7,57.2 108.8,57.2 108.8,57.1 C108.9,57 109,56.9 109.1,56.8 C109.1,56.8 109.1,56.8 109.1,56.7 C109.2,56.6 109.2,56.5 109.2,56.4 L113.4,40.2 C113.4,40.2 113.4,40.1 113.4,40.1 C113.4,40 113.4,40 113.4,39.9 C113.4,40 113.4,39.9 113.4,39.8 Z M14.1,71.9 L3,37.9 L6.1,26.1 L17.1,60.1 L14.1,71.9 Z M19.2,58.6 L7.5,22.6 L99,3.2 L110.7,39.2 L19.2,58.6 Z" id="path-1"></path>
    </defs>
    <g id="Logo-Empty" stroke="none" stroke-width="1" fill="none" fill-rule="evenodd">
        <g id="Color-/-Black" transform="translate(3.000000, 1.000000)">
            <mask id="mask-2" fill="white">
                <use xlink:href="#path-1"></use>
            </mask>
            <g id="Mask" fill-rule="nonzero"></g>
            <g style="mix-blend-mode: screen;" mask="url(#mask-2)" fill="#000000" id="Rectangle-2">
                <g transform="translate(-3.000000, -1.000000)">
                    <rect style="mix-blend-mode: multiply;" x="0" y="0" width="120" height="80"></rect>
                </g>
            </g>
        </g>
    </g>
</svg>