<?xml version="1.0" encoding="UTF-8"?>
<svg width="120px" height="80px" viewBox="0 0 120 80" version="1.1" xmlns="http://www.w3.org/2000/svg" xmlns:xlink="http://www.w3.org/1999/xlink">
    <!-- Generator: Sketch 51.2 (57519) - http://www.bohemiancoding.com/sketch -->
    <title>Logo</title>
    <desc>Created with Sketch.</desc>
    <defs>
        <path d="M25.2,46.4 C25.4,46.9 25.8,47.2 26.3,47.2 C26.4,47.2 26.5,47.2 26.7,47.1 C27.3,46.9 27.7,46.2 27.5,45.6 L25.5,39.3 L28.5,38.7 C28.8,38.6 31.1,38.1 32.2,36.2 C32.6,35.5 33,34.2 32.5,32.5 C31.3,28.7 27.4,28.5 25.6,28.9 L21.3,29.8 C21,29.9 20.7,30.1 20.5,30.4 C20.3,30.7 20.3,31 20.4,31.4 L25.2,46.4 Z M26,31.3 C26.3,31.2 29.3,30.7 30.2,33.3 C30.4,34 30.4,34.6 30.1,35.1 C29.6,36 28.4,36.4 27.9,36.5 L24.6,37.2 L23,31.9 L26,31.3 Z M88,33.1 L83.1,18.1 C83,17.7 83,17.4 83.2,17.1 C83.4,16.8 83.7,16.6 84,16.5 L88.4,15.6 C90.2,15.2 94.1,15.4 95.3,19.2 C95.8,20.9 95.4,22.2 95,22.9 C93.9,24.8 91.6,25.3 91.3,25.4 L88.3,26 L90.3,32.3 C90.5,32.9 90.1,33.6 89.5,33.8 C89.3,33.9 89.2,33.9 89.1,33.9 C88.6,33.9 88.2,33.6 88,33.1 Z M88.8,17.9 L85.7,18.6 L87.4,23.8 L90.7,23.1 C91.2,23 92.4,22.6 92.9,21.7 C93.2,21.2 93.2,20.6 93,19.9 C92.1,17.2 88.9,17.9 88.8,17.9 Z M38.1,44.7 C37.5,44.6 37,44.1 37,43.4 L37.6,37.2 L38.6,26.9 C38.6,26.4 38.9,26 39.4,25.9 C39.9,25.8 40.4,25.9 40.7,26.3 L47.8,34.8 L52.1,39.9 C52.5,40.4 52.4,41.2 51.9,41.6 C51.6,41.8 51.4,41.9 51.1,41.9 C50.8,41.9 50.4,41.8 50.2,41.5 L46.4,36.9 L39.9,38.3 L39.4,43.6 C39.3,44.2 38.8,44.7 38.2,44.7 C38.2,44.7 38.1,44.7 38.1,44.7 Z M40.8,30.1 L40.2,35.9 L44.8,34.9 L40.8,30.1 Z M55.5,40 L50.6,24.9 C50.5,24.4 50.7,23.8 51.1,23.5 C51.5,23.2 52.1,23.3 52.5,23.6 L65.1,33.8 L61.5,22.6 C61.3,22 61.7,21.3 62.3,21.1 C62.9,20.9 63.6,21.3 63.8,21.9 L68.7,36.9 C68.8,37.4 68.6,38 68.2,38.3 C67.8,38.6 67.2,38.5 66.8,38.2 L54.2,28 L57.8,39.2 C58,39.8 57.6,40.5 57,40.7 C56.8,40.8 56.7,40.8 56.6,40.8 C56.1,40.8 55.7,40.5 55.5,40 Z M69.9,30.9 L68.7,27.1 C67.9,24.8 68,22.9 68.8,21.5 C69.6,20.2 71,19.2 73.1,18.8 C77.3,17.9 80.3,19.7 81.7,24.1 L82.9,27.9 C83.7,30.2 83.6,32.1 82.8,33.5 C82,34.8 80.6,35.8 78.5,36.2 C77.8,36.3 77.1,36.4 76.5,36.4 C73.4,36.4 71.1,34.5 69.9,30.9 Z M70.9,22.7 C70.4,23.6 70.4,24.8 71,26.4 L72.2,30.2 C73.3,33.4 75.1,34.5 78.1,33.9 C79.4,33.6 80.4,33.1 80.8,32.3 C81.2,31.4 81.2,30.2 80.7,28.6 L79.5,24.8 C78.4,21.6 76.6,20.5 73.6,21.1 C72.3,21.4 71.3,21.9 70.9,22.7 Z M113.4,39.8 C113.4,39.7 113.4,39.7 113.4,39.8 L101,1.4 C100.8,0.8 100.2,0.5 99.6,0.6 L5.7,20.6 C5.7,20.6 5.6,20.6 5.5,20.7 C5.4,20.7 5.3,20.8 5.3,20.8 C5.2,20.8 5.2,20.9 5.1,20.9 C5.1,21 5,21 4.9,21.1 C4.9,21.1 4.9,21.1 4.8,21.2 C4.8,21.2 4.8,21.3 4.8,21.3 C4.8,21.4 4.7,21.4 4.7,21.5 L0.6,37.6 C0.6,37.6 0.6,37.7 0.6,37.7 C0.6,37.8 0.6,37.9 0.6,37.9 C0.6,38 0.6,38.1 0.6,38.1 C0.6,38.1 0.6,38.2 0.6,38.2 L13,76.6 C13,76.6 13,76.7 13.1,76.7 C13.1,76.8 13.1,76.8 13.2,76.8 C13.3,76.9 13.3,77 13.4,77 C13.4,77 13.4,77 13.5,77.1 C13.6,77.2 13.7,77.3 13.9,77.3 C13.9,77.3 13.9,77.3 13.9,77.3 C14,77.3 14.1,77.3 14.2,77.3 C14.2,77.3 14.2,77.3 14.2,77.3 C14.3,77.3 14.4,77.3 14.4,77.3 L108.3,57.3 C108.3,57.3 108.3,57.3 108.4,57.3 C108.5,57.3 108.6,57.2 108.7,57.2 C108.7,57.2 108.8,57.2 108.8,57.1 C108.9,57 109,56.9 109.1,56.8 C109.1,56.8 109.1,56.8 109.1,56.7 C109.2,56.6 109.2,56.5 109.2,56.4 L113.4,40.2 C113.4,40.2 113.4,40.1 113.4,40.1 C113.4,40 113.4,40 113.4,39.9 C113.4,40 113.4,39.9 113.4,39.8 Z M14.1,71.9 L3,37.9 L6.1,26.1 L17.1,60.1 L14.1,71.9 Z M19.2,58.6 L7.5,22.6 L99,3.2 L110.7,39.2 L19.2,58.6 Z" id="path-1"></path>
    </defs>
    <g id="Logo" stroke="none" stroke-width="1" fill="none" fill-rule="evenodd">
        <g id="Color-/-Black" transform="translate(3.000000, 1.000000)">
            <mask id="mask-2" fill="white">
                <use xlink:href="#path-1"></use>
            </mask>
            <g id="Mask" fill-rule="nonzero"></g>
            <g style="mix-blend-mode: screen;" mask="url(#mask-2)" fill="#000000" id="Rectangle-2">
                <g transform="translate(-3.000000, -1.000000)">
                    <rect style="mix-blend-mode: multiply;" x="0" y="0" width="120" height="80"></rect>
                </g>
            </g>
        </g>
    </g>
</svg>