<?xml version="1.0" encoding="utf-8"?>
<!-- Generator: Adobe Illustrator 22.1.0, SVG Export Plug-In . SVG Version: 6.00 Build 0)  -->
<svg version="1.1" id="Layer_1" xmlns="http://www.w3.org/2000/svg" xmlns:xlink="http://www.w3.org/1999/xlink" x="0px" y="0px"
	 viewBox="0 0 16 16" style="enable-background:new 0 0 16 16;" xml:space="preserve">
<g id="surface1_1_">
	<path d="M-70.3,1.5c-3.6,0-6.5,2.9-6.5,6.5s2.9,6.5,6.5,6.5s6.5-2.9,6.5-6.5S-66.7,1.5-70.3,1.5z M-70.3,2.5c1.3,0,2.5,0.5,3.4,1.2
		c-0.5,0.6-1.4,1.4-2.8,1.9c-0.8-1.4-1.5-2.4-1.9-3C-71.2,2.6-70.8,2.5-70.3,2.5z M-72.6,3c0.4,0.5,1.1,1.4,1.9,2.9
		c-2.2,0.6-4.1,0.6-4.9,0.6C-75.2,5-74.1,3.7-72.6,3z M-66.1,4.4c0.8,1,1.3,2.2,1.3,3.6c0,0.2,0,0.4,0,0.6c-0.2,0-0.3,0-0.5-0.1
		c-0.8-0.1-1.8-0.1-2.9,0.1c-0.3-0.8-0.6-1.4-0.9-2.1C-67.7,6-66.7,5.1-66.1,4.4z M-70.2,6.9c0.3,0.6,0.6,1.3,0.9,2
		c-1.3,0.4-2.5,1.3-3.4,2.1c-0.5,0.4-0.9,0.9-1.2,1.2c-1.2-1-1.9-2.5-1.9-4.1c0-0.2,0-0.3,0-0.5C-75.1,7.6-72.8,7.6-70.2,6.9z
		 M-66.9,9.5c0.8,0,1.4,0,1.9,0.1c-0.4,1.2-1.1,2.3-2.2,3c-0.2-1-0.4-2-0.7-2.9C-67.6,9.6-67.2,9.5-66.9,9.5z M-68.9,9.8
		c0.4,1,0.6,2.1,0.8,3.3c-0.7,0.3-1.4,0.4-2.2,0.4c-1,0-2-0.3-2.8-0.8c0.3-0.3,0.6-0.7,1-1C-71.2,10.9-70,10.1-68.9,9.8z"/>
</g>
<g id="surface1_2_">
	<path d="M-44,3.8c-0.5,0.2-1,0.4-1.6,0.4c0.6-0.3,1-0.9,1.2-1.5c-0.5,0.3-1.1,0.5-1.8,0.7c-0.5-0.5-1.2-0.9-2-0.9
		c-1.5,0-2.8,1.2-2.8,2.8c0,0.2,0,0.4,0.1,0.6c-2.3-0.1-4.4-1.2-5.7-2.9C-56.9,3.4-57,3.9-57,4.4c0,1,0.5,1.8,1.2,2.3
		c-0.5,0-0.9-0.1-1.3-0.3c0,0,0,0,0,0c0,1.3,1,2.5,2.2,2.7c-0.2,0.1-0.5,0.1-0.7,0.1c-0.2,0-0.4,0-0.5,0c0.4,1.1,1.4,1.9,2.6,1.9
		c-0.9,0.7-2.1,1.2-3.4,1.2c-0.2,0-0.4,0-0.7,0c1.2,0.8,2.7,1.2,4.3,1.2c5.1,0,7.9-4.2,7.9-7.9c0-0.1,0-0.2,0-0.4
		C-44.9,4.8-44.4,4.4-44,3.8"/>
</g>
<g id="surface1_3_">
	<path d="M-32.5,2.1c-1.9,0-3.5,1.6-3.5,3.5v4.9c0,1.9,1.6,3.5,3.5,3.5h4.9c1.9,0,3.5-1.6,3.5-3.5V5.6c0-1.9-1.6-3.5-3.5-3.5H-32.5z
		 M-32.5,3.2h4.9c1.3,0,2.4,1.1,2.4,2.4v4.9c0,1.3-1.1,2.4-2.4,2.4h-4.9c-1.3,0-2.4-1.1-2.4-2.4V5.6C-34.9,4.2-33.8,3.2-32.5,3.2z
		 M-26.9,4.3c-0.3,0-0.5,0.2-0.5,0.5c0,0.3,0.2,0.5,0.5,0.5s0.5-0.2,0.5-0.5C-26.4,4.6-26.6,4.3-26.9,4.3z M-30.1,4.8
		c-1.8,0-3.2,1.4-3.2,3.2s1.4,3.2,3.2,3.2s3.2-1.4,3.2-3.2S-28.3,4.8-30.1,4.8z M-30.1,5.9c1.2,0,2.1,1,2.1,2.1s-1,2.1-2.1,2.1
		s-2.1-1-2.1-2.1S-31.3,5.9-30.1,5.9z"/>
</g>
<g id="surface1_4_">
	<path d="M-8,2.5h-6.9C-16,2.5-17,3.4-17,4.6v6.9c0,1.1,0.9,2.1,2.1,2.1H-8c1.1,0,2.1-0.9,2.1-2.1V4.6C-5.9,3.4-6.9,2.5-8,2.5z
		 M-8.3,8.4h-1v3.8H-11V8.4h-0.7V7.1h0.7V6.3c0-1.1,0.4-1.7,1.7-1.7h1.3v1.3h-0.7c-0.5,0-0.5,0.2-0.5,0.5l0,0.7h1.2L-8.3,8.4z"/>
</g>
<g id="surface1">
	<path d="M10.7,7.7c0.1,0.1,0.2,0.3,0.2,0.5H9.6c0,0,0-0.1,0-0.2c0-0.1,0-0.1,0.1-0.2c0-0.1,0.1-0.1,0.2-0.2c0.1,0,0.2-0.1,0.3-0.1
		C10.5,7.6,10.6,7.6,10.7,7.7z M6.9,7.5C6.9,7.4,7,7.2,7,7.1C7,7,7,6.9,7,6.8c0,0-0.1-0.1-0.1-0.1c0,0-0.1,0-0.2-0.1
		c-0.1,0-0.2,0-0.3,0H5.6v1h0.9C6.6,7.6,6.7,7.5,6.9,7.5z M6.5,8.2h-1v1.1h1c0.1,0,0.2,0,0.3,0c0.1,0,0.2,0,0.2-0.1
		c0,0,0.1-0.1,0.2-0.2c0-0.1,0-0.2,0-0.3c0-0.2,0-0.4-0.2-0.5C6.9,8.2,6.7,8.2,6.5,8.2z M13.5,4.6v6.8c0,1.1-0.9,2.1-2.1,2.1H4.6
		c-1.1,0-2.1-0.9-2.1-2.1V4.6c0-1.1,0.9-2.1,2.1-2.1h6.8C12.5,2.5,13.5,3.5,13.5,4.6z M9.4,6.6h1.7V6.2H9.4V6.6z M8.1,8.8
		c0-0.3,0-0.5-0.2-0.7C7.8,8,7.6,7.9,7.4,7.8c0.2-0.1,0.3-0.2,0.4-0.3c0.1-0.1,0.1-0.3,0.1-0.5c0-0.2,0-0.3-0.1-0.5
		C7.7,6.3,7.7,6.2,7.6,6.2C7.5,6.1,7.3,6,7.2,6C6.9,5.9,6.8,5.9,6.6,5.9H4.6V10h2c0.2,0,0.4,0,0.5-0.1c0.2,0,0.3-0.1,0.5-0.2
		C7.8,9.6,7.9,9.5,8,9.3C8,9.2,8.1,9.1,8.1,8.8z M9.6,8.7h2.1c0-0.3,0-0.5,0-0.7c0-0.2-0.1-0.4-0.3-0.5c-0.1-0.2-0.3-0.3-0.5-0.4
		c-0.2-0.1-0.4-0.2-0.7-0.2c-0.2,0-0.4,0-0.6,0.1C9.5,7.2,9.3,7.3,9.2,7.4C9.1,7.5,8.9,7.7,8.9,7.9C8.8,8.1,8.8,8.3,8.8,8.5
		c0,0.2,0,0.5,0.1,0.6C9,9.4,9.1,9.6,9.2,9.7S9.5,9.9,9.6,10c0.2,0.1,0.4,0.1,0.6,0.1c0.3,0,0.6-0.1,0.9-0.3
		c0.3-0.2,0.4-0.4,0.5-0.8H11c0,0.1-0.1,0.2-0.2,0.3c-0.1,0.1-0.3,0.1-0.4,0.1c-0.2,0-0.4,0-0.5-0.2C9.7,9.2,9.6,9,9.6,8.7z"/>
</g>
</svg>
