<?xml version="1.0" encoding="utf-8"?>
<!-- Generator: Adobe Illustrator 22.1.0, SVG Export Plug-In . SVG Version: 6.00 Build 0)  -->
<svg version="1.1" id="Layer_1" xmlns="http://www.w3.org/2000/svg" xmlns:xlink="http://www.w3.org/1999/xlink" x="0px" y="0px"
	 viewBox="0 0 16 16" style="enable-background:new 0 0 16 16;" xml:space="preserve">
<g id="surface1_1_">
	<path d="M-11.5,1.5C-15.1,1.5-18,4.4-18,8s2.9,6.5,6.5,6.5S-5,11.6-5,8S-7.9,1.5-11.5,1.5z M-11.5,2.5c1.3,0,2.5,0.5,3.4,1.2
		c-0.5,0.6-1.4,1.4-2.8,1.9c-0.8-1.4-1.5-2.4-1.9-3C-12.4,2.6-12,2.5-11.5,2.5z M-13.8,3c0.4,0.5,1.1,1.4,1.9,2.9
		C-14,6.5-16,6.5-16.8,6.5C-16.4,5-15.3,3.7-13.8,3z M-7.3,4.4C-6.5,5.4-6,6.6-6,8c0,0.2,0,0.4,0,0.6c-0.2,0-0.3,0-0.5-0.1
		c-0.8-0.1-1.8-0.1-2.9,0.1c-0.3-0.8-0.6-1.4-0.9-2.1C-8.9,6-7.9,5.1-7.3,4.4z M-11.4,6.9c0.3,0.6,0.6,1.3,0.9,2
		c-1.3,0.4-2.5,1.3-3.4,2.1c-0.5,0.4-0.9,0.9-1.2,1.2c-1.2-1-1.9-2.5-1.9-4.1c0-0.2,0-0.3,0-0.5C-16.3,7.6-14,7.6-11.4,6.9z
		 M-8.1,9.5c0.8,0,1.4,0,1.9,0.1c-0.4,1.2-1.1,2.3-2.2,3c-0.2-1-0.4-2-0.7-2.9C-8.8,9.6-8.4,9.5-8.1,9.5z M-10.1,9.8
		c0.4,1,0.6,2.1,0.8,3.3c-0.7,0.3-1.4,0.4-2.2,0.4c-1,0-2-0.3-2.8-0.8c0.3-0.3,0.6-0.7,1-1C-12.4,10.9-11.2,10.1-10.1,9.8z"/>
</g>
<g id="surface1_2_">
	<path d="M14.8,3.8c-0.5,0.2-1,0.4-1.6,0.4c0.6-0.3,1-0.9,1.2-1.5c-0.5,0.3-1.1,0.5-1.8,0.7c-0.5-0.5-1.2-0.9-2-0.9
		c-1.5,0-2.8,1.2-2.8,2.8c0,0.2,0,0.4,0.1,0.6C5.6,5.8,3.5,4.7,2.2,3C1.9,3.4,1.8,3.9,1.8,4.4c0,1,0.5,1.8,1.2,2.3
		c-0.5,0-0.9-0.1-1.3-0.3c0,0,0,0,0,0c0,1.3,1,2.5,2.2,2.7C3.8,9.2,3.5,9.2,3.3,9.2c-0.2,0-0.4,0-0.5,0c0.4,1.1,1.4,1.9,2.6,1.9
		c-0.9,0.7-2.1,1.2-3.4,1.2c-0.2,0-0.4,0-0.7,0c1.2,0.8,2.7,1.2,4.3,1.2c5.1,0,7.9-4.2,7.9-7.9c0-0.1,0-0.2,0-0.4
		C13.9,4.8,14.4,4.4,14.8,3.8"/>
</g>
<g id="surface1_3_">
	<path d="M26.3,2.1c-1.9,0-3.5,1.6-3.5,3.5v4.9c0,1.9,1.6,3.5,3.5,3.5h4.9c1.9,0,3.5-1.6,3.5-3.5V5.6c0-1.9-1.6-3.5-3.5-3.5H26.3z
		 M26.3,3.2h4.9c1.3,0,2.4,1.1,2.4,2.4v4.9c0,1.3-1.1,2.4-2.4,2.4h-4.9c-1.3,0-2.4-1.1-2.4-2.4V5.6C23.9,4.2,25,3.2,26.3,3.2z
		 M31.9,4.3c-0.3,0-0.5,0.2-0.5,0.5c0,0.3,0.2,0.5,0.5,0.5s0.5-0.2,0.5-0.5C32.4,4.6,32.2,4.3,31.9,4.3z M28.7,4.8
		c-1.8,0-3.2,1.4-3.2,3.2s1.4,3.2,3.2,3.2s3.2-1.4,3.2-3.2S30.5,4.8,28.7,4.8z M28.7,5.9c1.2,0,2.1,1,2.1,2.1s-1,2.1-2.1,2.1
		s-2.1-1-2.1-2.1S27.5,5.9,28.7,5.9z"/>
</g>
<g id="surface1">
	<path d="M50.8,2.5h-6.9c-1.1,0-2.1,0.9-2.1,2.1v6.9c0,1.1,0.9,2.1,2.1,2.1h6.9c1.1,0,2.1-0.9,2.1-2.1V4.6
		C52.9,3.4,51.9,2.5,50.8,2.5z M50.5,8.4h-1v3.8h-1.7V8.4h-0.7V7.1h0.7V6.3c0-1.1,0.4-1.7,1.7-1.7h1.3v1.3H50
		c-0.5,0-0.5,0.2-0.5,0.5l0,0.7h1.2L50.5,8.4z"/>
</g>
</svg>
