<?xml version="1.0" encoding="UTF-8"?>
<svg width="20px" height="20px" viewBox="0 0 20 20" version="1.1" xmlns="http://www.w3.org/2000/svg" xmlns:xlink="http://www.w3.org/1999/xlink">
    <!-- Generator: Sketch 51.2 (57519) - http://www.bohemiancoding.com/sketch -->
    <title>Icon / close</title>
    <desc>Created with Sketch.</desc>
    <defs>
        <path d="M9,7.58578644 L15.7928932,0.792893219 C16.1834175,0.402368927 16.8165825,0.402368927 17.2071068,0.792893219 C17.5976311,1.18341751 17.5976311,1.81658249 17.2071068,2.20710678 L10.4142136,9 L17.2071068,15.7928932 C17.5976311,16.1834175 17.5976311,16.8165825 17.2071068,17.2071068 C16.8165825,17.5976311 16.1834175,17.5976311 15.7928932,17.2071068 L9,10.4142136 L2.20710678,17.2071068 C1.81658249,17.5976311 1.18341751,17.5976311 0.792893219,17.2071068 C0.402368927,16.8165825 0.402368927,16.1834175 0.792893219,15.7928932 L7.58578644,9 L0.792893219,2.20710678 C0.402368927,1.81658249 0.402368927,1.18341751 0.792893219,0.792893219 C1.18341751,0.402368927 1.81658249,0.402368927 2.20710678,0.792893219 L9,7.58578644 Z" id="path-1"></path>
    </defs>
    <g id="Icon-/-close" stroke="none" stroke-width="1" fill="none" fill-rule="evenodd">
        <g id="Color-/-Black" transform="translate(1.000000, 1.000000)">
            <mask id="mask-2" fill="white">
                <use xlink:href="#path-1"></use>
            </mask>
            <use id="Mask" fill="#979797" fill-rule="nonzero" xlink:href="#path-1"></use>
            <g mask="url(#mask-2)" fill="#000000" id="Rectangle-2">
                <g transform="translate(-1.000000, -1.000000)">
                    <rect style="mix-blend-mode: multiply;" x="0" y="0" width="20" height="20"></rect>
                </g>
            </g>
        </g>
    </g>
</svg>